# This file uses centimeters as units for non-parametric coordinates.

mtllib mesh_Cortina3.mtl
g default
v 2.020020 0.398438 3331.659668
v 3.356445 0.857910 3025.515137
v 0.293457 2.345215 2692.730469
v 6.215088 2.450684 2408.511719
v 6.325684 3.357910 1991.798828
v 4.017090 4.335938 1639.423828
v -1.178955 2.706055 1342.482422
v 1.429199 1.750000 989.761719
v 7.618408 1.774902 642.067383
v 2.883545 0.395508 306.641602
v 0.000000 0.000000 0.000000
v -41.852783 -418.807129 3240.002930
v 21.690430 -332.758789 2985.072754
v -109.511719 -281.417969 2686.214844
v 38.353027 -289.062500 2421.140625
v 90.214111 -270.947754 1997.401367
v -69.947510 -274.688965 1671.796875
v -156.638672 -251.680176 1317.160156
v -57.520752 -281.915039 965.383789
v 93.481689 -287.452148 643.299805
v -54.409180 -315.915039 344.425781
v -49.100098 -410.451660 75.156250
v -84.539795 -727.710938 3109.355469
v 49.858887 -630.677246 2863.396484
v -174.032471 -571.489258 2655.257812
v -6.896973 -565.426270 2398.730469
v 118.110352 -541.232422 1981.991211
v -74.942871 -530.297852 1664.884766
v -220.925781 -516.601074 1315.700195
v -35.228027 -549.210449 993.368164
v 110.349121 -587.725586 666.948242
v -134.866699 -596.213867 464.912109
v -75.309326 -726.194336 188.420898
v -121.458984 -1005.300293 2900.457031
v 55.229980 -900.355469 2675.424805
v -221.650146 -863.479004 2569.262695
v -81.801025 -798.032715 2311.888672
v 123.591797 -771.342285 1964.697266
v -83.366211 -747.979004 1654.935547
v -247.944824 -739.687500 1317.312500
v 10.529541 -769.962402 1084.439453
v 93.114014 -871.666016 743.809570
v -193.529541 -850.715332 645.485352
v -93.994873 -1009.412109 379.747070
v -154.839111 -1214.844238 2640.673828
v 45.251709 -1094.387695 2435.460938
v -243.094238 -1103.588867 2415.886719
v -161.278320 -985.546875 2164.730469
v 106.141357 -984.737305 1937.435547
v -117.137939 -946.250000 1661.897461
v -259.523682 -948.961914 1329.605469
v 37.810303 -964.096191 1211.755859
v 51.758545 -1098.249512 884.527344
v -237.241211 -1038.501465 869.238281
v -108.817383 -1220.985840 624.863281
v -189.213379 -1311.746094 2406.634766
v 21.667725 -1187.466553 2180.905273
v -243.469482 -1227.010986 2244.736328
v -217.204590 -1134.064453 2002.174805
v 73.176270 -1186.470703 1902.638672
v -183.126709 -1149.592529 1697.721680
v -257.434814 -1144.255615 1344.671875
v 38.277588 -1143.581055 1353.074219
v -6.686523 -1226.649902 1040.560547
v -262.861084 -1152.416260 1105.139648
v -113.994873 -1321.551514 862.551758
v -174.860107 -1361.951172 2145.911133
v -115.239258 -1342.840576 1984.994141
v -180.760986 -1374.981934 1946.613281
v -170.722168 -1388.303955 1868.025391
v -101.247803 -1431.421631 1763.244141
v -175.002441 -1427.833252 1673.720703
v -164.011719 -1420.993164 1493.486328
v -109.274902 -1398.381592 1489.815430
v -128.741699 -1372.554688 1310.114258
v -174.653076 -1339.754395 1306.574219
v -137.884521 -1371.488525 1123.245117
vt 0.745492 0.004889
vt 0.745492 0.059789
vt 0.745492 0.113188
vt 0.745492 0.164398
vt 0.745492 0.233121
vt 0.745492 0.296364
vt 0.745492 0.361249
vt 0.745492 0.420836
vt 0.745492 0.483988
vt 0.745492 0.537675
vt 0.745492 0.594786
vt 0.686519 0.004889
vt 0.686519 0.059789
vt 0.686519 0.113188
vt 0.686519 0.164398
vt 0.686519 0.233121
vt 0.686519 0.296364
vt 0.686519 0.361249
vt 0.686519 0.420836
vt 0.686519 0.483988
vt 0.686519 0.537675
vt 0.686519 0.594786
vt 0.631763 0.004889
vt 0.631763 0.059789
vt 0.631763 0.113188
vt 0.631763 0.164398
vt 0.631763 0.233121
vt 0.631763 0.296364
vt 0.631763 0.361249
vt 0.631763 0.420836
vt 0.631763 0.483988
vt 0.631763 0.537675
vt 0.631763 0.594786
vt 0.579934 0.004889
vt 0.579934 0.059789
vt 0.579934 0.113188
vt 0.579934 0.164398
vt 0.579934 0.233121
vt 0.579934 0.296364
vt 0.579934 0.361249
vt 0.579934 0.420836
vt 0.579934 0.483988
vt 0.579934 0.537675
vt 0.579934 0.594786
vt 0.531273 0.004889
vt 0.531273 0.059789
vt 0.531273 0.113188
vt 0.531273 0.164398
vt 0.531273 0.233121
vt 0.531273 0.296364
vt 0.531273 0.361249
vt 0.531273 0.420836
vt 0.531273 0.483988
vt 0.531273 0.537675
vt 0.531273 0.594786
vt 0.488456 0.004889
vt 0.488456 0.059789
vt 0.488456 0.113188
vt 0.488456 0.164398
vt 0.488456 0.233121
vt 0.488456 0.296364
vt 0.488456 0.361249
vt 0.488456 0.420836
vt 0.488456 0.483988
vt 0.488456 0.537675
vt 0.488456 0.594786
vt 0.431160 0.004889
vt 0.431160 0.059789
vt 0.431160 0.113188
vt 0.431160 0.164398
vt 0.431160 0.233121
vt 0.431160 0.296364
vt 0.431160 0.361249
vt 0.431160 0.420836
vt 0.431160 0.483988
vt 0.431160 0.537675
vt 0.431160 0.594786
vn -0.992905 0.052412 -0.106733
vn -0.995535 0.086716 0.037292
vn -0.995561 0.067849 0.065224
vn -0.973128 0.101020 -0.206922
vn -0.991459 0.130412 0.000817
vn -0.994672 0.097239 0.034249
vn -0.986189 -0.075098 -0.147622
vn -0.967754 0.027147 -0.250432
vn -0.991011 -0.113925 0.070127
vn -0.994619 -0.061830 0.083131
vn -0.958840 0.212727 0.188080
vn -0.946126 0.109509 0.304719
vn -0.920995 0.389572 -0.001100
vn -0.968768 0.246330 -0.028469
vn -0.963136 0.190758 -0.189686
vn -0.950019 0.070724 -0.304076
vn -0.999394 -0.034515 0.004623
vn -0.998494 0.017455 0.052019
vn -0.993789 0.065696 0.089825
vn -0.983257 0.117933 0.138914
vn -0.989684 0.140632 -0.027350
vn -0.987444 0.126633 -0.094436
vn -0.989777 0.056730 0.130858
vn -0.897623 0.249292 -0.363492
vn -0.982637 0.009158 0.185310
vn -0.905292 0.196209 -0.376759
vn -0.995398 0.054882 0.078551
vn -0.898980 0.025384 0.437254
vn -0.997154 0.028753 -0.069689
vn -0.905811 -0.087761 -0.414493
vn -0.965028 0.139235 0.222115
vn -0.955775 0.190809 0.223801
vn -0.976468 0.034693 -0.212854
vn -0.977668 0.063972 0.200181
vn -0.810453 0.430901 -0.396850
vn -0.908907 -0.168439 0.381465
vn -0.852130 0.333597 -0.403222
vn -0.977629 0.210046 0.011030
vn -0.868992 0.055317 0.491724
vn -0.983181 -0.079357 -0.164494
vn -0.887863 -0.156147 -0.432802
vn -0.853201 0.329084 0.404662
vn -0.933340 0.238678 0.268157
vn -0.956215 -0.107436 -0.272233
vn -0.954729 0.031798 0.295772
vn -0.722404 0.614310 -0.317420
vn -0.773230 -0.466344 0.429696
vn -0.792958 0.426272 -0.435327
vn -0.913217 0.407219 -0.014424
vn -0.849082 0.137916 0.509941
vn -0.948440 -0.109335 -0.297503
vn -0.855379 -0.136176 -0.499782
vn -0.700456 0.568084 0.432022
vn -0.900477 0.312155 0.302819
vn -0.927416 -0.258929 -0.269916
vn -0.904431 -0.095240 0.415854
vn -0.648130 0.735644 -0.196864
vn -0.651591 -0.667140 0.361045
vn -0.724768 0.386512 -0.570369
vn -0.851682 0.521303 -0.053670
vn -0.876253 0.048756 0.479379
vn -0.866692 -0.245945 -0.434001
vn -0.807267 0.076608 -0.585193
vn -0.533175 0.759635 0.372395
vn -0.851368 0.323645 0.412828
vn -0.886759 -0.411655 -0.210233
vn -0.143355 -0.755859 0.638847
vn -0.637734 0.751861 -0.167333
vn -0.863099 -0.498079 0.083539
vn -0.510624 0.433595 -0.742468
vn -0.902987 0.288893 0.318049
vn -0.903965 -0.102818 0.415062
vn -0.880643 -0.362915 -0.304568
vn -0.437847 -0.145452 -0.887206
vn -0.568631 0.787057 0.239166
vn -0.131542 0.696486 0.705411
vn -0.855440 -0.499362 -0.137334
s 1
f 1/1/1 2/2/2 13/13/3 12/12/4
f 2/2/2 3/3/5 14/14/6 13/13/3
f 3/3/5 4/4/7 15/15/8 14/14/6
f 4/4/7 5/5/9 16/16/10 15/15/8
f 5/5/9 6/6/11 17/17/12 16/16/10
f 6/6/11 7/7/13 18/18/14 17/17/12
f 7/7/13 8/8/15 19/19/16 18/18/14
f 8/8/15 9/9/17 20/20/18 19/19/16
f 9/9/17 10/10/19 21/21/20 20/20/18
f 10/10/19 11/11/21 22/22/22 21/21/20
f 12/12/4 13/13/3 24/24/23 23/23/24
f 13/13/3 14/14/6 25/25/25 24/24/23
f 14/14/6 15/15/8 26/26/26 25/25/25
f 15/15/8 16/16/10 27/27/27 26/26/26
f 16/16/10 17/17/12 28/28/28 27/27/27
f 17/17/12 18/18/14 29/29/29 28/28/28
f 18/18/14 19/19/16 30/30/30 29/29/29
f 19/19/16 20/20/18 31/31/31 30/30/30
f 20/20/18 21/21/20 32/32/32 31/31/31
f 21/21/20 22/22/22 33/33/33 32/32/32
f 23/23/24 24/24/23 35/35/34 34/34/35
f 24/24/23 25/25/25 36/36/36 35/35/34
f 25/25/25 26/26/26 37/37/37 36/36/36
f 26/26/26 27/27/27 38/38/38 37/37/37
f 27/27/27 28/28/28 39/39/39 38/38/38
f 28/28/28 29/29/29 40/40/40 39/39/39
f 29/29/29 30/30/30 41/41/41 40/40/40
f 30/30/30 31/31/31 42/42/42 41/41/41
f 31/31/31 32/32/32 43/43/43 42/42/42
f 32/32/32 33/33/33 44/44/44 43/43/43
f 34/34/35 35/35/34 46/46/45 45/45/46
f 35/35/34 36/36/36 47/47/47 46/46/45
f 36/36/36 37/37/37 48/48/48 47/47/47
f 37/37/37 38/38/38 49/49/49 48/48/48
f 38/38/38 39/39/39 50/50/50 49/49/49
f 39/39/39 40/40/40 51/51/51 50/50/50
f 40/40/40 41/41/41 52/52/52 51/51/51
f 41/41/41 42/42/42 53/53/53 52/52/52
f 42/42/42 43/43/43 54/54/54 53/53/53
f 43/43/43 44/44/44 55/55/55 54/54/54
f 45/45/46 46/46/45 57/57/56 56/56/57
f 46/46/45 47/47/47 58/58/58 57/57/56
f 47/47/47 48/48/48 59/59/59 58/58/58
f 48/48/48 49/49/49 60/60/60 59/59/59
f 49/49/49 50/50/50 61/61/61 60/60/60
f 50/50/50 51/51/51 62/62/62 61/61/61
f 51/51/51 52/52/52 63/63/63 62/62/62
f 52/52/52 53/53/53 64/64/64 63/63/63
f 53/53/53 54/54/54 65/65/65 64/64/64
f 54/54/54 55/55/55 66/66/66 65/65/65
f 56/56/57 57/57/56 68/68/67 67/67/68
f 57/57/56 58/58/58 69/69/69 68/68/67
f 58/58/58 59/59/59 70/70/70 69/69/69
f 59/59/59 60/60/60 71/71/71 70/70/70
f 60/60/60 61/61/61 72/72/72 71/71/71
f 61/61/61 62/62/62 73/73/73 72/72/72
f 62/62/62 63/63/63 74/74/74 73/73/73
f 63/63/63 64/64/64 75/75/75 74/74/74
f 64/64/64 65/65/65 76/76/76 75/75/75
f 65/65/65 66/66/66 77/77/77 76/76/76
